<?xml version="1.0" encoding="UTF-8"?>
<!DOCTYPE svg PUBLIC "-//W3C//DTD SVG 1.1//EN" "http://www.w3.org/Graphics/SVG/1.1/DTD/svg11.dtd">
<svg xmlns="http://www.w3.org/2000/svg" version="1.1" width="880px" height="880px" style="shape-rendering:geometricPrecision; text-rendering:geometricPrecision; image-rendering:optimizeQuality; fill-rule:evenodd; clip-rule:evenodd" xmlns:xlink="http://www.w3.org/1999/xlink">
<g><path style="opacity:1" fill="#191919" d="M 688.5,250.5 C 688.389,249.883 688.056,249.383 687.5,249C 660.558,243.615 633.891,244.615 607.5,252C 577.745,265.553 567.912,288.053 578,319.5C 580.275,325.219 583.442,330.385 587.5,335C 602.803,345.163 619.47,352.329 637.5,356.5C 637.168,321.996 637.502,287.663 638.5,253.5C 638.167,287.84 638.5,322.173 639.5,356.5C 671.586,364.688 703.586,373.188 735.5,382C 757.863,389.415 776.696,401.915 792,419.5C 804.326,436.805 811.326,456.139 813,477.5C 818.934,551.567 785.434,595.734 712.5,610C 666.353,616.609 620.353,615.775 574.5,607.5C 551.231,602.764 528.231,596.597 505.5,589C 504.806,584.503 504.139,580.003 503.5,575.5C 503.5,549.167 503.5,522.833 503.5,496.5C 514.833,496.5 526.167,496.5 537.5,496.5C 537.667,472.164 537.5,447.831 537,423.5C 517.825,410.172 505.658,392.172 500.5,369.5C 500.519,367.94 500.852,366.44 501.5,365C 488.8,294.191 515.8,246.358 582.5,221.5C 594.622,218.257 606.956,216.091 619.5,215C 677.382,212.578 734.049,219.745 789.5,236.5C 789.5,265.167 789.5,293.833 789.5,322.5C 778.147,322.832 766.814,322.499 755.5,321.5C 752.101,304.039 744.934,288.373 734,274.5C 721.447,261.639 706.28,253.639 688.5,250.5 Z M 638.5,458.5 C 660.011,463.295 681.011,469.795 701.5,478C 720.876,486.906 730.542,502.073 730.5,523.5C 729.571,551.753 715.571,569.753 688.5,577.5C 688.389,576.883 688.056,576.383 687.5,576C 671.17,575.5 654.837,575.333 638.5,575.5C 638.5,536.5 638.5,497.5 638.5,458.5 Z"/></g>
<g><path style="opacity:1" fill="#595e53" d="M 150.5,221.5 C 150.5,232.167 150.5,242.833 150.5,253.5C 149.172,248.712 148.505,243.546 148.5,238C 148.667,232.833 148.833,227.667 149,222.5C 149.383,221.944 149.883,221.611 150.5,221.5 Z"/></g>
<g><path style="opacity:1" fill="#c66443" d="M 150.5,221.5 C 203.504,221.167 256.504,221.5 309.5,222.5C 345.392,303.951 381.559,385.285 418,466.5C 420.798,461.899 423.298,457.232 425.5,452.5C 428.211,448.086 430.711,443.419 433,438.5C 433.49,437.207 433.657,435.873 433.5,434.5C 436.496,431.503 438.163,427.836 438.5,423.5C 440.607,420.943 441.941,417.943 442.5,414.5C 443.075,411.088 444.408,408.088 446.5,405.5C 448.607,402.943 449.941,399.943 450.5,396.5C 453.211,392.086 455.711,387.419 458,382.5C 458.49,381.207 458.657,379.873 458.5,378.5C 461.496,375.503 463.163,371.836 463.5,367.5C 465.607,364.943 466.941,361.943 467.5,358.5C 468.075,355.088 469.408,352.088 471.5,349.5C 473.607,346.943 474.941,343.943 475.5,340.5C 478.211,336.086 480.711,331.419 483,326.5C 483.49,325.207 483.657,323.873 483.5,322.5C 484.463,319.256 485.796,316.256 487.5,313.5C 490.596,308.443 493.429,303.109 496,297.5C 496.49,296.207 496.657,294.873 496.5,293.5C 498.607,290.943 499.941,287.943 500.5,284.5C 503.544,279.418 506.378,274.085 509,268.5C 509.49,267.207 509.657,265.873 509.5,264.5C 515.882,253.06 521.216,241.06 525.5,228.5C 526.455,226.254 527.122,223.921 527.5,221.5C 545.833,221.5 564.167,221.5 582.5,221.5C 515.8,246.358 488.8,294.191 501.5,365C 500.852,366.44 500.519,367.94 500.5,369.5C 473.681,429.807 446.848,490.141 420,550.5C 397.402,551.831 374.902,551.831 352.5,550.5C 353.043,550.44 353.376,550.107 353.5,549.5C 353.216,547.241 352.216,545.574 350.5,544.5C 350.539,541.911 349.539,539.911 347.5,538.5C 346.89,537.609 346.557,536.609 346.5,535.5C 346.293,532.759 345.293,530.426 343.5,528.5C 339.989,522.139 336.989,515.472 334.5,508.5C 334.536,505.539 333.536,503.206 331.5,501.5C 328.266,495.815 325.599,489.815 323.5,483.5C 323.539,480.911 322.539,478.911 320.5,477.5C 319.89,476.609 319.557,475.609 319.5,474.5C 319.293,471.759 318.293,469.426 316.5,467.5C 314.764,460.91 312.097,454.91 308.5,449.5C 307.662,449.158 307.328,448.492 307.5,447.5C 307.536,444.539 306.536,442.206 304.5,440.5C 302.375,437.912 301.042,434.912 300.5,431.5C 300.134,429.095 299.467,426.762 298.5,424.5C 298.253,423.287 297.586,422.62 296.5,422.5C 296.539,419.911 295.539,417.911 293.5,416.5C 291.609,413.386 290.276,410.052 289.5,406.5C 287.764,399.91 285.097,393.91 281.5,388.5C 278.266,382.815 275.599,376.815 273.5,370.5C 273.293,367.759 272.293,365.426 270.5,363.5C 269.662,363.158 269.328,362.492 269.5,361.5C 269.293,358.759 268.293,356.426 266.5,354.5C 264.764,347.91 262.097,341.91 258.5,336.5C 252.602,324.827 247.269,312.827 242.5,300.5C 242.293,297.759 241.293,295.426 239.5,293.5C 238.108,291.727 236.941,289.727 236,287.5C 235.5,383.499 235.333,479.499 235.5,575.5C 251.833,575.5 268.167,575.5 284.5,575.5C 284.5,586.167 284.5,596.833 284.5,607.5C 239.833,607.5 195.167,607.5 150.5,607.5C 150.5,596.833 150.5,586.167 150.5,575.5C 166.167,575.5 181.833,575.5 197.5,575.5C 198.117,575.611 198.617,575.944 199,576.5C 199.167,522.667 199.333,468.833 199.5,415C 199.5,360.829 198.833,306.996 197.5,253.5C 181.833,253.5 166.167,253.5 150.5,253.5C 150.5,242.833 150.5,232.167 150.5,221.5 Z"/></g>
<g><path style="opacity:1" fill="#c66343" d="M 688.5,250.5 C 688.5,251.5 688.5,252.5 688.5,253.5C 671.833,253.5 655.167,253.5 638.5,253.5C 637.502,287.663 637.168,321.996 637.5,356.5C 619.47,352.329 602.803,345.163 587.5,335C 583.442,330.385 580.275,325.219 578,319.5C 567.912,288.053 577.745,265.553 607.5,252C 633.891,244.615 660.558,243.615 687.5,249C 688.056,249.383 688.389,249.883 688.5,250.5 Z"/></g>
<g><path style="opacity:1" fill="#626c63" d="M 197.5,253.5 C 198.833,306.996 199.5,360.829 199.5,415C 199.333,468.833 199.167,522.667 199,576.5C 198.617,575.944 198.117,575.611 197.5,575.5C 197.5,468.167 197.5,360.833 197.5,253.5 Z"/></g>
<g><path style="opacity:1" fill="#656473" d="M 525.5,228.5 C 521.216,241.06 515.882,253.06 509.5,264.5C 514.322,252.196 519.656,240.196 525.5,228.5 Z"/></g>
<g><path style="opacity:1" fill="#666677" d="M 509.5,264.5 C 509.657,265.873 509.49,267.207 509,268.5C 506.378,274.085 503.544,279.418 500.5,284.5C 502.989,277.528 505.989,270.861 509.5,264.5 Z"/></g>
<g><path style="opacity:1" fill="#54648d" d="M 500.5,284.5 C 499.941,287.943 498.607,290.943 496.5,293.5C 497.075,290.088 498.408,287.088 500.5,284.5 Z"/></g>
<g><path style="opacity:1" fill="#446897" d="M 239.5,293.5 C 241.293,295.426 242.293,297.759 242.5,300.5C 240.707,298.574 239.707,296.241 239.5,293.5 Z"/></g>
<g><path style="opacity:1" fill="#6e6377" d="M 496.5,293.5 C 496.657,294.873 496.49,296.207 496,297.5C 493.429,303.109 490.596,308.443 487.5,313.5C 489.989,306.528 492.989,299.861 496.5,293.5 Z"/></g>
<g><path style="opacity:1" fill="#626675" d="M 483.5,322.5 C 483.657,323.873 483.49,325.207 483,326.5C 480.711,331.419 478.211,336.086 475.5,340.5C 477.656,334.196 480.322,328.196 483.5,322.5 Z"/></g>
<g><path style="opacity:1" fill="#54658c" d="M 475.5,340.5 C 474.941,343.943 473.607,346.943 471.5,349.5C 472.075,346.088 473.408,343.088 475.5,340.5 Z"/></g>
<g><path style="opacity:1" fill="#656178" d="M 258.5,336.5 C 262.097,341.91 264.764,347.91 266.5,354.5C 263.266,348.815 260.599,342.815 258.5,336.5 Z"/></g>
<g><path style="opacity:1" fill="#46659c" d="M 266.5,354.5 C 268.293,356.426 269.293,358.759 269.5,361.5C 267.707,359.574 266.707,357.241 266.5,354.5 Z"/></g>
<g><path style="opacity:1" fill="#4f627e" d="M 467.5,358.5 C 466.941,361.943 465.607,364.943 463.5,367.5C 464.075,364.088 465.408,361.088 467.5,358.5 Z"/></g>
<g><path style="opacity:1" fill="#476577" d="M 270.5,363.5 C 272.293,365.426 273.293,367.759 273.5,370.5C 271.707,368.574 270.707,366.241 270.5,363.5 Z"/></g>
<g><path style="opacity:1" fill="#766177" d="M 463.5,367.5 C 463.163,371.836 461.496,375.503 458.5,378.5C 459.603,374.503 461.269,370.836 463.5,367.5 Z"/></g>
<g><path style="opacity:1" fill="#666570" d="M 458.5,378.5 C 458.657,379.873 458.49,381.207 458,382.5C 455.711,387.419 453.211,392.086 450.5,396.5C 452.656,390.196 455.322,384.196 458.5,378.5 Z"/></g>
<g><path style="opacity:1" fill="#696085" d="M 281.5,388.5 C 285.097,393.91 287.764,399.91 289.5,406.5C 286.266,400.815 283.599,394.815 281.5,388.5 Z"/></g>
<g><path style="opacity:1" fill="#54658c" d="M 450.5,396.5 C 449.941,399.943 448.607,402.943 446.5,405.5C 447.075,402.088 448.408,399.088 450.5,396.5 Z"/></g>
<g><path style="opacity:1" fill="#4f607f" d="M 442.5,414.5 C 441.941,417.943 440.607,420.943 438.5,423.5C 439.075,420.088 440.408,417.088 442.5,414.5 Z"/></g>
<g><path style="opacity:1" fill="#4469a1" d="M 293.5,416.5 C 295.539,417.911 296.539,419.911 296.5,422.5C 294.992,420.819 293.992,418.819 293.5,416.5 Z"/></g>
<g><path style="opacity:1" fill="#c66343" d="M 638.5,458.5 C 638.5,497.5 638.5,536.5 638.5,575.5C 654.837,575.333 671.17,575.5 687.5,576C 688.056,576.383 688.389,576.883 688.5,577.5C 688.389,578.117 688.056,578.617 687.5,579C 656.794,585.934 626.46,584.601 596.5,575C 565.027,562.179 545.861,539.013 539,505.5C 538.333,478.167 538.333,450.833 539,423.5C 555.653,433.907 573.486,441.741 592.5,447C 607.957,450.864 623.291,454.698 638.5,458.5 Z"/></g>
<g><path style="opacity:1" fill="#586085" d="M 296.5,422.5 C 297.586,422.62 298.253,423.287 298.5,424.5C 299.467,426.762 300.134,429.095 300.5,431.5C 298.375,428.912 297.042,425.912 296.5,422.5 Z"/></g>
<g><path style="opacity:1" fill="#766178" d="M 438.5,423.5 C 438.163,427.836 436.496,431.503 433.5,434.5C 434.603,430.503 436.269,426.836 438.5,423.5 Z"/></g>
<g><path style="opacity:1" fill="#666571" d="M 433.5,434.5 C 433.657,435.873 433.49,437.207 433,438.5C 430.711,443.419 428.211,448.086 425.5,452.5C 427.656,446.196 430.322,440.196 433.5,434.5 Z"/></g>
<g><path style="opacity:1" fill="#635f90" d="M 304.5,440.5 C 306.536,442.206 307.536,444.539 307.5,447.5C 305.707,445.574 304.707,443.241 304.5,440.5 Z"/></g>
<g><path style="opacity:1" fill="#695f82" d="M 308.5,449.5 C 312.097,454.91 314.764,460.91 316.5,467.5C 313.266,461.815 310.599,455.815 308.5,449.5 Z"/></g>
<g><path style="opacity:1" fill="#45688e" d="M 316.5,467.5 C 318.293,469.426 319.293,471.759 319.5,474.5C 317.707,472.574 316.707,470.241 316.5,467.5 Z"/></g>
<g><path style="opacity:1" fill="#4668a3" d="M 320.5,477.5 C 322.539,478.911 323.539,480.911 323.5,483.5C 321.992,481.819 320.992,479.819 320.5,477.5 Z"/></g>
<g><path style="opacity:1" fill="#635f90" d="M 331.5,501.5 C 333.536,503.206 334.536,505.539 334.5,508.5C 332.707,506.574 331.707,504.241 331.5,501.5 Z"/></g>
<g><path style="opacity:1" fill="#446798" d="M 343.5,528.5 C 345.293,530.426 346.293,532.759 346.5,535.5C 344.707,533.574 343.707,531.241 343.5,528.5 Z"/></g>
<g><path style="opacity:1" fill="#436b8c" d="M 347.5,538.5 C 349.539,539.911 350.539,541.911 350.5,544.5C 348.992,542.819 347.992,540.819 347.5,538.5 Z"/></g>
<g><path style="opacity:1" fill="#676492" d="M 350.5,544.5 C 352.216,545.574 353.216,547.241 353.5,549.5C 353.376,550.107 353.043,550.44 352.5,550.5C 351.27,548.703 350.604,546.703 350.5,544.5 Z"/></g>
<g><path style="opacity:1" fill="#595e53" d="M 150.5,575.5 C 150.5,586.167 150.5,596.833 150.5,607.5C 149.172,602.712 148.505,597.546 148.5,592C 148.667,586.833 148.833,581.667 149,576.5C 149.383,575.944 149.883,575.611 150.5,575.5 Z"/></g>
<g><path style="opacity:1" fill="#c36346" d="M 503.5,575.5 C 504.139,580.003 504.806,584.503 505.5,589C 528.231,596.597 551.231,602.764 574.5,607.5C 545.833,607.5 517.167,607.5 488.5,607.5C 488.5,596.833 488.5,586.167 488.5,575.5C 493.5,575.5 498.5,575.5 503.5,575.5 Z"/></g>
<g><path style="opacity:1" fill="#c86444" d="M 132.5,671.5 C 334.167,671.333 535.834,671.5 737.5,672C 743.109,675.277 744.942,680.11 743,686.5C 741.833,688.333 740.333,689.833 738.5,691C 536.833,691.667 335.167,691.667 133.5,691C 127.891,687.723 126.058,682.89 128,676.5C 129.366,674.638 130.866,672.972 132.5,671.5 Z"/></g>
<g><path style="opacity:1" fill="#6e696c" d="M 292.5,763.5 C 299.175,763.334 305.842,763.5 312.5,764C 320.905,766.455 324.905,772.122 324.5,781C 325.165,789.673 321.498,795.673 313.5,799C 306.508,799.5 299.508,799.666 292.5,799.5C 292.5,787.5 292.5,775.5 292.5,763.5 Z M 298.5,767.5 C 314.536,766.028 320.703,773.028 317,788.5C 316.215,790.286 315.049,791.786 313.5,793C 308.716,795.032 303.716,795.866 298.5,795.5C 298.5,786.167 298.5,776.833 298.5,767.5 Z"/></g>
<g><path style="opacity:1" fill="#5d695f" d="M 347.5,763.5 C 349.5,763.5 351.5,763.5 353.5,763.5C 353.5,775.5 353.5,787.5 353.5,799.5C 351.5,799.5 349.5,799.5 347.5,799.5C 347.5,787.5 347.5,775.5 347.5,763.5 Z"/></g>
<g><path style="opacity:1" fill="#6e6965" d="M 388.5,762.5 C 393.267,762.191 397.934,762.691 402.5,764C 405.695,765.695 408.028,768.195 409.5,771.5C 405.985,774.494 403.318,773.994 401.5,770C 393.049,765.357 386.549,767.19 382,775.5C 379.285,789.321 384.785,795.821 398.5,795C 403.288,794.137 405.288,791.304 404.5,786.5C 400.833,786.5 397.167,786.5 393.5,786.5C 393.5,784.833 393.5,783.167 393.5,781.5C 399.167,781.5 404.833,781.5 410.5,781.5C 410.666,785.846 410.499,790.179 410,794.5C 401.085,801.401 391.585,802.235 381.5,797C 371.989,786.052 372.322,775.385 382.5,765C 384.611,764.155 386.611,763.322 388.5,762.5 Z"/></g>
<g><path style="opacity:1" fill="#5d695f" d="M 433.5,763.5 C 435.5,763.5 437.5,763.5 439.5,763.5C 439.5,775.5 439.5,787.5 439.5,799.5C 437.5,799.5 435.5,799.5 433.5,799.5C 433.5,787.5 433.5,775.5 433.5,763.5 Z"/></g>
<g><path style="opacity:1" fill="#736c5a" d="M 459.5,763.5 C 469.833,763.5 480.167,763.5 490.5,763.5C 490.5,764.833 490.5,766.167 490.5,767.5C 486.5,767.5 482.5,767.5 478.5,767.5C 478.5,778.167 478.5,788.833 478.5,799.5C 476.167,799.5 473.833,799.5 471.5,799.5C 471.5,788.833 471.5,778.167 471.5,767.5C 467.5,767.5 463.5,767.5 459.5,767.5C 459.5,766.167 459.5,764.833 459.5,763.5 Z"/></g>
<g><path style="opacity:1" fill="#6d6964" d="M 520.5,763.5 C 523.247,763.187 525.914,763.52 528.5,764.5C 533.073,776.057 537.74,787.557 542.5,799C 540.098,799.814 537.765,799.647 535.5,798.5C 534.26,795.607 532.926,792.773 531.5,790C 526.511,789.501 521.511,789.334 516.5,789.5C 515.5,792.833 514.5,796.167 513.5,799.5C 511.076,799.808 508.743,799.474 506.5,798.5C 511.456,786.925 516.123,775.258 520.5,763.5 Z M 523.5,771.5 C 524.497,771.47 525.164,771.97 525.5,773C 526.9,777.13 528.566,781.13 530.5,785C 526.5,785.667 522.5,785.667 518.5,785C 520.664,780.674 522.331,776.174 523.5,771.5 Z"/></g>
<g><path style="opacity:1" fill="#706972" d="M 561.5,763.5 C 563.5,763.5 565.5,763.5 567.5,763.5C 567.5,774.167 567.5,784.833 567.5,795.5C 573.5,795.5 579.5,795.5 585.5,795.5C 585.5,796.833 585.5,798.167 585.5,799.5C 577.5,799.5 569.5,799.5 561.5,799.5C 561.5,787.5 561.5,775.5 561.5,763.5 Z"/></g>
</svg>
